<svg width="19" height="15" viewBox="0 0 19 15" fill="none" xmlns="http://www.w3.org/2000/svg">
<path fill-rule="evenodd" clip-rule="evenodd" d="M18.0638 6.22167C17.9454 6.33676 17.7846 6.40252 17.6153 6.40252C16.9891 6.40252 16.4814 6.89577 16.4814 7.49589C16.4814 8.10012 16.9832 8.5909 17.6035 8.59747C17.953 8.60076 18.25 8.83752 18.25 9.17704V11.2857C18.25 13.0605 16.7691 14.5 14.9412 14.5H12.1825C11.8974 14.5 11.6663 14.2756 11.6663 13.9985V12.2228C11.6663 11.8776 11.3871 11.6063 11.0317 11.6063C10.6847 11.6063 10.397 11.8776 10.397 12.2228V13.9985C10.397 14.2756 10.166 14.5 9.88165 14.5H4.05875C2.23936 14.5 0.75 13.0614 0.75 11.2857V9.17704C0.75 8.83752 1.04703 8.60076 1.39652 8.59747C2.01765 8.5909 2.51862 8.10012 2.51862 7.49589C2.51862 6.91221 2.0278 6.46829 1.38467 6.46829C1.21543 6.46829 1.05464 6.40252 0.93617 6.28743C0.817698 6.17234 0.75 6.01615 0.75 5.85173V3.72255C0.75 1.95015 2.24275 0.5 4.06721 0.5H9.88165C10.166 0.5 10.397 0.724427 10.397 1.00147V3.10599C10.397 3.44304 10.6847 3.72255 11.0317 3.72255C11.3871 3.72255 11.6663 3.44304 11.6663 3.10599V1.00147C11.6663 0.724427 11.8974 0.5 12.1825 0.5H14.9412C16.7691 0.5 18.25 1.93864 18.25 3.71433V5.78596C18.25 5.95038 18.1823 6.10658 18.0638 6.22167ZM11.0317 10.0115C11.3871 10.0115 11.6663 9.73195 11.6663 9.39489V6.10658C11.6663 5.76953 11.3871 5.49002 11.0317 5.49002C10.6847 5.49002 10.397 5.76953 10.397 6.10658V9.39489C10.397 9.73195 10.6847 10.0115 11.0317 10.0115Z" fill="#B1B5C4"/>
</svg>
